inDegrees=no
num_controls=7
num_derivatives=13
num_iterations=156
num_multipliers=7
num_parameters=0
num_slacks=7
num_states=26
objective=0.451609
objective_accelerations=0.003502
objective_balance=0.009190
objective_effort=0.023463
objective_height=0.213507
objective_ligament=0.201947
solver_duration=1897.379874
status=Solve_Succeeded
success=true
DataType=double
version=3
OpenSimVersion=4.5
endheader
time	/jointset/ground_pelvis/pelvis_tilt/value	/jointset/ground_pelvis/pelvis_tx/value	/jointset/ground_pelvis/pelvis_ty/value	/jointset/hip_l/hip_flexion_l/value	/jointset/hip_l/hip_adduction_l/value	/jointset/hip_l/hip_rotation_l/value	/jointset/back/lumbar_extension/value	/jointset/patellofemoral_l/patellar_flexion_l/value	/jointset/knee_l/knee_flexion_l/value	/jointset/knee_l/knee_adduction_l/value	/jointset/knee_l/knee_rotation_l/value	/jointset/ankle_l/ankle_angle_l/value	/jointset/subtalar_l/subtalar_angle_l/value	/jointset/ground_pelvis/pelvis_tilt/speed	/jointset/ground_pelvis/pelvis_tx/speed	/jointset/ground_pelvis/pelvis_ty/speed	/jointset/hip_l/hip_flexion_l/speed	/jointset/hip_l/hip_adduction_l/speed	/jointset/hip_l/hip_rotation_l/speed	/jointset/back/lumbar_extension/speed	/jointset/patellofemoral_l/patellar_flexion_l/speed	/jointset/knee_l/knee_flexion_l/speed	/jointset/knee_l/knee_adduction_l/speed	/jointset/knee_l/knee_rotation_l/speed	/jointset/ankle_l/ankle_angle_l/speed	/jointset/subtalar_l/subtalar_angle_l/speed	/forceset/tau_hip_flexion_l	/forceset/tau_hip_adduction_l	/forceset/tau_hip_rotation_l	/forceset/tau_knee_flexion_l	/forceset/tau_ankle_angle_l	/forceset/tau_subtalar_angle_l	/forceset/tau_lumbar_extension	lambda_cid13_p0	lambda_cid13_p1	lambda_cid13_p2	lambda_cid13_p3	lambda_cid13_p4	lambda_cid13_p5	lambda_cid14_p0	/jointset/ground_pelvis/pelvis_tilt/accel	/jointset/ground_pelvis/pelvis_tx/accel	/jointset/ground_pelvis/pelvis_ty/accel	/jointset/hip_l/hip_flexion_l/accel	/jointset/hip_l/hip_adduction_l/accel	/jointset/hip_l/hip_rotation_l/accel	/jointset/back/lumbar_extension/accel	/jointset/patellofemoral_l/patellar_flexion_l/accel	/jointset/knee_l/knee_flexion_l/accel	/jointset/knee_l/knee_adduction_l/accel	/jointset/knee_l/knee_rotation_l/accel	/jointset/ankle_l/ankle_angle_l/accel	/jointset/subtalar_l/subtalar_angle_l/accel	gamma_cid13_p0	gamma_cid13_p1	gamma_cid13_p2	gamma_cid13_p3	gamma_cid13_p4	gamma_cid13_p5	gamma_cid14_p0
0	-0.008453973627900974	0.04327426699799175	0.9242453911439046	0.3085816938045678	-0.2463962159136327	-0.3244309663945393	-0.3879492264334186	0.2499269421184949	0.2499269421184919	-0.07076078963043793	-0.174532213510265	-0.0008036623358878681	0.05206588633935704	0	0	0	0	0	0	0	0	0	0	0	0	0	-0.02883133678918607	-0.06278629956508744	-0.01021745990268555	-0.2972250525844843	0.3966983557123175	-0.002144573723763122	0.1449568839781793	80.96250781076645	-10.74184898519193	-1.600460912200855	-102.8307324575443	-728.8710342173745	-93.3796036689759	-22.85485659453981	3.512533763283284	2.58582089912309	0.5716446595789861	-5.876313842237249	0.7024521141625873	-0.2968194894655244	1.040540236076343	2.023467373532478	2.023467373532677	2.374347324126432	-0.01310739948521168	5.202262403846155	2.736956287202513	5.556019850447281e-08	3.620183825984826e-07	-2.332474834078572e-07	5.314144646575245e-09	1.003543066493396e-07	4.828622307312398e-07	3.836330677098079e-08
0.01	-0.008282340076766176	0.04340262891825609	0.924273250619818	0.3082937778507997	-0.2463639778284239	-0.3244414504534404	-0.3879002757098957	0.2500298995908745	0.2500298995908767	-0.07064795842736075	-0.1745305324582824	-0.0005452930130516558	0.05219898230557419	0.03407705617082953	0.02559962280732299	0.005510895166506617	-0.05719663299212407	0.006163110770657497	-0.001960945207029127	0.009358436835801636	0.02076273738536726	0.02076273738536903	0.02202561755319938	0.000295400640302555	0.05154276317846691	0.02627591084775236	-0.01723149270394139	-0.07934378839231045	-0.01038305139375214	-0.312425745747994	0.4109860485575765	0.004273949828417819	0.1357356316686774	85.99082591396957	-13.99864830625391	-1.550913800448989	-105.3646809025019	-726.3204355969599	-101.8030014455425	-22.85597815288252	3.317841917488435	2.536119847341604	0.5316820136156812	-5.583354361260456	0.5305833091633092	-0.1253064823500564	0.818739227228541	2.128355684800791	2.128355684800969	2.035591608566047	0.04469769854769381	5.110630813790377	2.521385996541045	5.691709091100668e-08	3.720582582871222e-07	-2.416803215539044e-07	7.912775908394003e-09	1.780764851679937e-07	5.135281911732196e-07	3.631690221536568e-08
0.02	-0.007777425889224984	0.0437848044417546	0.9243543930610821	0.3074454923003966	-0.2462786400853791	-0.3244674588536172	-0.3877706918540371	0.2503456201898629	0.2503456201898644	-0.0703310865212172	-0.17452713061931	0.0002245734493578735	0.05258453288286466	0.06665612728189736	0.0507627206468324	0.01065659307016935	-0.1120739193266644	0.01061993156715437	-0.003104868255196029	0.01612662646746908	0.04255262532121198	0.04255262532121507	0.04080814061237425	0.0003441573909933041	0.1022994279146699	0.0504909222146831	-0.005631648618698156	-0.09590127721953201	-0.01054864288484397	-0.3276264389115058	0.4252737414028344	0.01069247338060002	0.1265143793591737	91.05256356625925	-17.25415770669992	-1.509728114011858	-108.2284770447304	-723.4832893032333	-110.1932671376024	-22.85959517197167	3.212936751331021	2.498515905560307	0.4986052070102066	-5.412444510720504	0.3611941193304512	-0.1334150576931085	0.5224907952495708	2.228897483627986	2.228897483628095	1.725728425321514	-0.06243617740761852	5.045042715393298	2.324776391038146	5.827398331754054e-08	3.820981339757618e-07	-2.501131596999515e-07	1.051140717021276e-08	2.557986636866478e-07	5.441941516151994e-07	3.427049765975058e-08
0.03	-0.006954405699649809	0.04441394267723477	0.9244851083161827	0.306060910951263	-0.2461551159099028	-0.3245042629187372	-0.3875827394179368	0.2508790190014603	0.2508790190014654	-0.06983980724097416	-0.1745257567029374	0.001492625017044581	0.0532022754305622	0.09767106850006058	0.07474060992973446	0.01541994623096398	-0.1643512667407983	0.01400554019598811	-0.00422539580126255	0.02139628861416109	0.06376880521389038	0.06376880521389018	0.05713663216791341	-1.618067784106992e-05	0.1506316888708017	0.07273107799637751	-0.01087679292954024	-0.08379003175612333	-0.01018983037067624	-0.3102628312751176	0.396273760851063	0.008419539892910881	0.1280330110370294	81.57817163204655	-15.18501553367965	-1.180659059145148	-98.30378073841466	-721.4647334669461	-105.0947172488876	-22.86599689711952	3.004244360397448	2.298780074343447	0.4552750865242411	-5.061715464190656	0.3153622522814736	-0.09674135656949889	0.5190681038042189	2.014221628578859	2.014221628578342	1.539761985470686	-0.01490071704415365	4.625449823399695	2.124627445805274	5.755440155143625e-08	3.397735091345786e-07	-2.168107890550295e-07	4.413216315450926e-09	1.90916675399658e-07	4.622926199239754e-07	3.473301470195947e-08
0.04	-0.005829541787229542	0.04527313073248163	0.9246614720460731	0.3041682890065003	-0.2460001120446135	-0.3245513462100191	-0.3873441175244857	0.2516138282892856	0.2516138282892896	-0.06919457255221054	-0.1745263997863257	0.003223625601827833	0.0540326179908906	0.1270248718517754	0.09677268460016956	0.01978628802815084	-0.2136820384521622	0.01691586952968676	-0.005160713487571319	0.02626051793786753	0.08283472056621209	0.08283472056620855	0.07159922231547727	-5.924256358694281e-05	0.194889231333996	0.09301092474088023	-0.01612193724037589	-0.0716787862927101	-0.009831017856534598	-0.2928992236387282	0.3672737802992924	0.006146606405227129	0.1295516427148886	72.12971255268812	-13.11632294874143	-0.8561903738273035	-88.66739699098623	-719.2352789038603	-99.96405082447211	-22.8749425813308	2.880709178041404	2.109352983066861	0.4192029342886487	-4.823129370166488	0.2661382603034271	-0.09637308574153189	0.4414042306525158	1.798844575556659	1.798844575556759	1.352548143726444	0.001019059210096432	4.230099016805732	1.93271458359977	5.679200588486519e-08	2.963692038701e-07	-1.826478986412215e-07	-1.864290459240408e-09	1.230943950135827e-07	3.780701090135101e-07	3.524726208639154e-08
0.05	-0.004418802520736413	0.04634377027499304	0.9248793964769566	0.3017968515975864	-0.2458191583273107	-0.3246064335123264	-0.387061620160531	0.2525316351057099	0.2525316351057094	-0.06841444651615829	-0.1745262926085201	0.005379404254611178	0.05505619229418654	0.1548899533079066	0.1171133581098926	0.02371873416211899	-0.2601048251908785	0.01911158980821687	-0.005800965561181785	0.02991281975506087	0.1006912340547464	0.1006912340547527	0.08406792314267376	6.550469813713933e-05	0.235842594296599	0.1113912617837319	-0.01329960498903217	-0.07051568792372791	-0.009661229209857482	-0.289149595443918	0.3553747348333814	0.006461510051362305	0.1255588912300955	68.41392358294902	-12.78640542270077	-0.6986988212383458	-83.73573305657985	-715.9547072685757	-99.54986767357697	-22.88608226928876	2.704452849388475	1.960144242358203	0.3683099258017682	-4.476759174436911	0.1718067545211225	-0.03944815830948085	0.2782228927261029	1.773736382308281	1.773736382309741	1.140337135078012	0.01589173516998522	3.964381729680353	1.74376631245583	4.126468917192293e-08	2.424239730315945e-07	-1.629618646730049e-07	-1.900355542327581e-09	1.041379893963797e-07	3.349898221331273e-07	2.468482105851162e-08
0.06	-0.002736403395689143	0.04761056049408834	0.92513425426375	0.2989762051515402	-0.2456211438386431	-0.3246662427133974	-0.3867523838313109	0.253626943386382	0.2536269433863763	-0.06752037225526032	-0.1745254001229931	0.007932001895758951	0.05625418457747645	0.1813568435636314	0.1360028199169488	0.02717295921011845	-0.3035238458780974	0.02032802380248044	-0.006105093240339147	0.03160831099119427	0.118335013415539	0.1183350134155547	0.09438886728434208	9.781898051888866e-05	0.2742530290069122	0.1278945207397026	-0.01047727273768553	-0.06935258955474596	-0.009491440563190439	-0.2853999672491083	0.3434756893674693	0.006776413697496796	0.1215661397453044	64.71916059445499	-12.45833475155166	-0.5430083036133696	-79.04300459358193	-712.5152784609867	-99.10777695655418	-22.89935873845135	2.601070937960171	1.819110642533458	0.3235587170949106	-4.222376159867001	0.07028100345011534	-0.02914820685087549	0.05004211444058375	1.756297750008333	1.756297750008308	0.9229968066207977	-0.01746753665834487	3.721513366347739	1.55729896622354	2.511569157281767e-08	1.880349137478669e-07	-1.438853825551289e-07	-1.673623080505104e-09	8.723909429576069e-08	2.936418394224321e-07	1.365599315011331e-08
0.07000000000000001	-0.0007963769578166252	0.04905920987468876	0.9254213665909732	0.2957355058406346	-0.2454151723654121	-0.324728766727186	-0.3864338762391257	0.254896200880027	0.2548962008800272	-0.06653276154904587	-0.1745252806456483	0.01085576776338452	0.05760850507500184	0.2063975627896555	0.1535048763244006	0.03017944976579865	-0.3441833710851137	0.02076765913236975	-0.006367714960552061	0.03198555289554733	0.1353425672544491	0.1353425672544352	0.102859162565132	-4.919383634620884e-05	0.3100506481055412	0.142716169158159	-0.01026300634380788	-0.06498532905419983	-0.00926646306863668	-0.2779075736191252	0.3268154318240726	0.006482328296579044	0.1198336540283568	59.40248355462628	-11.69035920227766	-0.3334439810973913	-73.33383439421976	-710.0753042678397	-97.47118281353252	-22.91478790837454	2.417937416962007	1.682425825937651	0.2787029974752743	-3.922845311517359	0.01603030566867969	-0.01999396132961387	0.01541704604238625	1.646893894469956	1.646893894465578	0.767933454550134	-0.009634699045522157	3.441466466229706	1.406573933148242	1.990047636495638e-08	1.652870975407964e-07	-1.338022489396877e-07	-2.543918900392459e-09	6.839089307253935e-08	2.713619836043502e-07	1.021310752150702e-08
0.08	0.00138652967271901	0.05067621435658105	0.9257364455782873	0.2921011903555768	-0.2452077594372991	-0.3247929519195214	-0.3861148258643761	0.2563303158507893	0.2563303158507942	-0.06546867037687422	-0.1745258946054405	0.01412402587891807	0.05910343728741	0.2299328820972337	0.1696738401753264	0.03276629122829285	-0.3822470807080608	0.02061631477867408	-0.006437328949689901	0.03171686750429413	0.1513065088388632	0.1513065088388195	0.1096849604756053	-4.886844700787374e-05	0.3431514785885386	0.1560168637162786	-0.01004873994992948	-0.06061806855365513	-0.00904148557409086	-0.2704151799891451	0.3101551742806734	0.006188242895658684	0.1181011683114114	54.10251974726496	-10.9253535861628	-0.1233564267068189	-67.82724838569344	-707.5163088081805	-95.80837225205936	-22.93221457694759	2.299990954271058	1.552492131228235	0.2396288984577116	-3.70321304305318	-0.04791493326688563	0.0094533393641732	-0.0791433446806229	1.547575299109152	1.547575299109084	0.5940973325574672	0.01200010458236605	3.182155643221359	1.253108194156174	1.539066647265924e-08	1.445806518548006e-07	-1.242993313566616e-07	-3.484990738454641e-09	4.941693016398882e-08	2.503123295212756e-07	7.259637523855054e-09
